<?xml version="1.0" encoding="UTF-8" standalone="no"?>
<!-- Created with Inkscape (http://www.inkscape.org/) -->

<svg
   width="102.92572mm"
   height="22.970795mm"
   viewBox="0 0 102.92572 22.970795"
   version="1.1"
   id="svg1142"
   inkscape:version="1.1 (c68e22c387, 2021-05-23)"
   sodipodi:docname="bomerangue_2022.svg"
   xmlns:inkscape="http://www.inkscape.org/namespaces/inkscape"
   xmlns:sodipodi="http://sodipodi.sourceforge.net/DTD/sodipodi-0.dtd"
   xmlns="http://www.w3.org/2000/svg"
   xmlns:svg="http://www.w3.org/2000/svg">
  <sodipodi:namedview
     id="namedview1144"
     pagecolor="#ffffff"
     bordercolor="#666666"
     borderopacity="1.0"
     inkscape:pageshadow="2"
     inkscape:pageopacity="0.0"
     inkscape:pagecheckerboard="0"
     inkscape:document-units="mm"
     showgrid="false"
     fit-margin-top="0"
     fit-margin-left="0"
     fit-margin-right="0"
     fit-margin-bottom="0"
     inkscape:zoom="1.3859293"
     inkscape:cx="130.59829"
     inkscape:cy="57.362234"
     inkscape:window-width="1360"
     inkscape:window-height="697"
     inkscape:window-x="1352"
     inkscape:window-y="-8"
     inkscape:window-maximized="1"
     inkscape:current-layer="layer1" />
  <defs
     id="defs1139" />
  <g
     inkscape:label="Camada 1"
     inkscape:groupmode="layer"
     id="layer1"
     transform="translate(-84.324966,-102.72254)">
    <g
       id="g1117"
       transform="matrix(0.67459238,0,0,0.70879301,114.21284,-296.7907)"
       inkscape:export-filename="D:\Desktop\LogoBoomerangue1024ver5.png"
       inkscape:export-xdpi="702"
       inkscape:export-ydpi="702">
      <g
         inkscape:export-ydpi="46.150002"
         inkscape:export-xdpi="46.150002"
         inkscape:export-filename="D:\Desktop\bmh50ee.png"
         transform="matrix(0.80507592,0,0,0.80507592,-2.5032365,215.68201)"
         id="g1115">
        <path
           class="cls-5"
           d="m -36.057764,447.60054 -4.73477,-3.67048 c -1.354069,-0.99095 -1.942561,1.66352 -0.835337,3.60966 l 2.586505,4.14986 c 1.159097,1.88174 1.500745,4.55589 0.178873,6.26055 1.490012,-1.6027 4.86177,-5.90281 2.804729,-10.34959 z"
           id="path1107"
           style="fill:#a94170;fill-opacity:1;stroke-width:0.178873" />
        <path
           class="cls-6"
           d="m -27.287617,454.39771 -8.76478,-6.79717 c 2.05704,4.45215 -1.389844,8.78088 -2.883434,10.37464 a 3.5577852,3.5577852 0 0 1 -0.309451,0.35774 l -11.138425,9.76468 a 4.8420937,4.8420937 0 0 0 -0.701182,0.9838 6.4036555,6.4036555 0 0 0 -0.715493,1.67783 2.9066872,2.9066872 0 0 0 -0.119845,0.95876 c 0.0322,0.67972 0.411408,1.01421 1.26821,0.52768 l 23.253498,-13.26165 c 2.098181,-1.18772 2.142899,-3.25728 0.110902,-4.58631 z"
           id="path1109"
           style="fill:#fe4170;fill-opacity:1;stroke-width:0.178873" />
        <path
           class="cls-5"
           d="m -18.664147,457.09691 4.73477,3.66869 c 1.354069,0.98916 1.942561,-1.6671 0.835337,-3.61145 l -2.586505,-4.14986 c -1.157308,-1.88174 -1.498956,-4.55589 -0.178873,-6.26055 -1.490012,1.6027 -4.861769,5.90281 -2.804729,10.35317 z"
           id="path1111"
           style="fill:#a94170;fill-opacity:1;stroke-width:0.178873" />
        <path
           class="cls-6"
           d="m -27.434293,450.30331 8.76478,6.79718 c -2.057041,-4.45037 1.389843,-8.77909 2.883433,-10.37464 a 3.7849539,3.7849539 0 0 1 0.307662,-0.35775 l 11.1384254,-9.77362 a 4.8438825,4.8438825 0 0 0 0.7029711,-0.97844 6.3786133,6.3786133 0 0 0 0.7154922,-1.67783 2.9066872,2.9066872 0 0 0 0.119845,-0.95876 c -0.032197,-0.67971 -0.4114081,-1.01421 -1.2664213,-0.52767 l -23.2534974,13.26165 c -2.09997,1.18593 -2.144688,3.2537 -0.11269,4.58988 z"
           id="path1113"
           style="fill:#fe4170;fill-opacity:1;stroke-width:0.178873" />
      </g>
    </g>
    <g
       id="g2642"
       transform="matrix(1.2288001,0,0,1.2288001,-24.629163,-24.58502)"
       style="fill:#3d3846;fill-opacity:1">
      <text
         xml:space="preserve"
         style="font-size:9.16823px;line-height:1.25;font-family:'Courier New';-inkscape-font-specification:'Courier New';fill:#3d3846;fill-opacity:1;stroke-width:0.687615"
         x="111.91703"
         y="111.8601"
         id="text1121"
         inkscape:export-filename="D:\Desktop\LogoBoomerangue1024ver5.png"
         inkscape:export-xdpi="702"
         inkscape:export-ydpi="702"><tspan
           sodipodi:role="line"
           id="tspan1119"
           x="111.91703"
           y="111.8601"
           style="font-style:normal;font-variant:normal;font-weight:bold;font-stretch:normal;font-size:9.16823px;font-family:'Segoe UI';-inkscape-font-specification:'Segoe UI Bold';fill:#3d3846;fill-opacity:1;stroke-width:0.687615">Boomerangue</tspan></text>
      <text
         xml:space="preserve"
         style="font-size:6.99494px;line-height:1.25;font-family:'Courier New';-inkscape-font-specification:'Courier New';fill:#3d3846;fill-opacity:1;stroke-width:0.524619"
         x="90.616539"
         y="153.57758"
         id="text1246"
         inkscape:export-filename="D:\Desktop\LogoBoomerangue1024ver5.png"
         inkscape:export-xdpi="702"
         inkscape:export-ydpi="702"
         transform="scale(1.2882866,0.7762248)"><tspan
           sodipodi:role="line"
           id="tspan1244"
           x="90.616539"
           y="153.57758"
           style="font-style:normal;font-variant:normal;font-weight:300;font-stretch:normal;font-size:6.99494px;font-family:'Segoe UI';-inkscape-font-specification:'Segoe UI Light';fill:#3d3846;fill-opacity:1;stroke-width:0.524619">Pedido Express</tspan></text>
    </g>
  </g>
</svg>
